<svg width="100" height="100" viewBox="0 0 100 100" fill="none" xmlns="http://www.w3.org/2000/svg">
<path d="M75 91.6666H25C20.3976 91.6666 16.6666 87.9356 16.6666 83.3333V16.6666C16.6666 12.0642 20.3976 8.33325 25 8.33325H54.1666C54.212 8.33522 54.2569 8.34364 54.3 8.35825C54.3407 8.37082 54.3825 8.3792 54.425 8.38325C54.7924 8.40681 55.1552 8.47824 55.5041 8.59575L55.6208 8.63325C55.7152 8.66526 55.8071 8.70426 55.8958 8.74992C56.3497 8.95168 56.7634 9.23402 57.1166 9.58325L82.1166 34.5833C82.4659 34.9365 82.7482 35.3502 82.95 35.8041C82.9916 35.8958 83.0208 35.9916 83.0541 36.0874L83.0916 36.1958C83.2079 36.5432 83.2766 36.9048 83.2958 37.2708C83.3023 37.309 83.312 37.3467 83.325 37.3833C83.3323 37.4217 83.3351 37.4608 83.3338 37.4999V83.3333C83.3338 87.9356 79.6023 91.6666 75 91.6666ZM25 16.6666V83.3333H75V41.6666H54.1666C51.8654 41.6666 50 39.8011 50 37.4999V16.6666H25ZM58.3333 22.5583V33.3333H69.1083L58.3333 22.5583Z" fill="#8F9BB3"/>
</svg>
