<svg width="23" height="31" viewBox="0 0 23 31" fill="none" xmlns="http://www.w3.org/2000/svg">
<path fill-rule="evenodd" clip-rule="evenodd" d="M7.48714 23.0526V3.30708H13.6159V8.25457C13.6159 8.93641 14.1651 9.48867 14.8417 9.48867H19.7447V23.0526H7.48714ZM15.4545 27.989H2.58401V8.24346H5.03553V24.2867C5.03553 24.9686 5.58467 25.5208 6.26129 25.5208H15.4545V27.989ZM16.0674 5.05269L18.0219 7.02046H16.0674V5.05269ZM21.8371 7.37095L15.7083 1.20046C15.4785 0.969065 15.1665 0.838867 14.8417 0.838867H6.26136C5.58475 0.838867 5.03561 1.39174 5.03561 2.07297V5.77526H1.35833C0.681709 5.77526 0.132568 6.32813 0.132568 7.00936V29.2231C0.132568 29.905 0.681709 30.4572 1.35833 30.4572H16.6803C17.3569 30.4572 17.9061 29.905 17.9061 29.2231V25.5208H20.9705C21.6471 25.5208 22.1962 24.9686 22.1962 24.2867V8.24345C22.1962 7.91642 22.0669 7.60234 21.8371 7.37095Z" fill="#B8C5D3"/>
<path fill-rule="evenodd" clip-rule="evenodd" d="M10.5515 13.4884H13.6159C14.124 13.4884 14.5352 13.0743 14.5352 12.5628C14.5352 12.0519 14.124 11.6372 13.6159 11.6372H10.5515C10.0434 11.6372 9.63217 12.0519 9.63217 12.5628C9.63217 13.0743 10.0434 13.4884 10.5515 13.4884Z" fill="#B8C5D3"/>
<path fill-rule="evenodd" clip-rule="evenodd" d="M16.6803 15.3396H10.5515C10.0434 15.3396 9.63217 15.7543 9.63217 16.2652C9.63217 16.7767 10.0434 17.1907 10.5515 17.1907H16.6803C17.1884 17.1907 17.5996 16.7767 17.5996 16.2652C17.5996 15.7543 17.1884 15.3396 16.6803 15.3396Z" fill="#B8C5D3"/>
<path fill-rule="evenodd" clip-rule="evenodd" d="M16.6803 19.0417H10.5515C10.0434 19.0417 9.63217 19.4564 9.63217 19.9673C9.63217 20.4789 10.0434 20.8929 10.5515 20.8929H16.6803C17.1884 20.8929 17.5996 20.4789 17.5996 19.9673C17.5996 19.4564 17.1884 19.0417 16.6803 19.0417Z" fill="#B8C5D3"/>
</svg>