<svg width="100" height="100" viewBox="0 0 100 100" fill="none" xmlns="http://www.w3.org/2000/svg">
<path d="M50 91.6666C26.9882 91.6666 8.33337 73.0118 8.33337 49.9999C8.33337 26.9881 26.9882 8.33325 50 8.33325C73.0119 8.33325 91.6667 26.9881 91.6667 49.9999C91.6415 73.0013 73.0014 91.6413 50 91.6666ZM16.6667 50.7166C16.8639 69.0551 31.838 83.7897 50.1773 83.6916C68.5166 83.5925 83.3315 68.6978 83.3315 50.3582C83.3315 32.0187 68.5166 17.124 50.1773 17.0249C31.838 16.9268 16.8639 31.6614 16.6667 49.9999V50.7166ZM58.3334 70.8333H45.8334V54.1666H41.6667V45.8333H54.1667V62.4999H58.3334V70.8333ZM54.1667 37.4999H45.8334V29.1666H54.1667V37.4999Z" fill="#8F9BB3"/>
</svg>
