<svg width="100" height="100" viewBox="0 0 100 100" fill="none" xmlns="http://www.w3.org/2000/svg">
<path d="M77.8208 81.6958L54.0083 57.8791C43.4152 65.4102 28.8184 63.568 20.4286 53.6413C12.0387 43.7146 12.6548 29.0149 21.8458 19.8249C31.0344 10.631 45.7355 10.0123 55.6641 18.4017C65.5927 26.7911 67.4359 41.3893 59.9041 51.9833L83.7166 75.7999L77.825 81.6916L77.8208 81.6958ZM39.5208 20.8332C31.6196 20.8314 24.8028 26.3778 23.1978 34.1143C21.5927 41.8507 25.6404 49.6511 32.8903 52.7926C40.1401 55.9341 48.5995 53.5534 53.1468 47.0918C57.6941 40.6302 57.0794 31.8638 51.675 26.0999L54.1958 28.5999L51.3541 25.7666L51.3041 25.7166C48.1866 22.5798 43.9433 20.8213 39.5208 20.8332Z" fill="#8F9BB3"/>
</svg>
